<svg xmlns="http://www.w3.org/2000/svg" width="600" height="370" fill="none" viewBox="0 0 600 370"><rect width="600" height="370" fill="#fff"/><rect width="149.009" height="149.009" x="128.064" y="181.13" fill="#E0E0E0" rx="22"/><circle cx="158.388" cy="212.036" r="8.11" fill="#333"/><circle cx="246.167" cy="212.036" r="8.11" fill="#333"/><circle cx="158.388" cy="299.816" r="8.11" fill="#333"/><circle cx="246.167" cy="299.816" r="8.11" fill="#333"/><rect width="149.009" height="149.009" x="330.224" y="181.13" fill="#E0E0E0" rx="22"/><circle cx="360.547" cy="212.036" r="8.11" fill="#333"/><circle cx="448.327" cy="212.036" r="8.11" fill="#333"/><circle cx="360.547" cy="299.816" r="8.11" fill="#333"/><circle cx="448.327" cy="299.816" r="8.11" fill="#333"/><path fill="#EB5757" fill-opacity=".5" stroke="#EB5757" stroke-linejoin="round" stroke-width="4" d="M158.83 299.926V211.926L245.83 299.926H158.83Z"/><path fill="#EB5757" fill-opacity=".5" stroke="#EB5757" stroke-linejoin="round" stroke-width="4" d="M448.532 211.926L448.532 299.926L361.532 211.926L448.532 211.926Z"/><rect width="106.026" height="107.459" x="30.194" y="20.561" fill="#E0E0E0" rx="22"/><ellipse cx="51.771" cy="42.849" fill="#333" rx="5.771" ry="5.849"/><rect width="106.026" height="107.459" x="172.013" y="20.561" fill="#E0E0E0" rx="22"/><ellipse cx="193.589" cy="42.849" fill="#333" rx="5.771" ry="5.849"/><ellipse cx="256.048" cy="42.849" fill="#333" rx="5.771" ry="5.849"/><rect width="107.459" height="107.459" x="313.618" y="20.561" fill="#E0E0E0" rx="22"/><circle cx="335.486" cy="42.849" r="5.849" fill="#333"/><ellipse cx="398.789" cy="42.849" fill="#333" rx="5.849" ry="5.849"/><ellipse cx="335.486" cy="106.151" fill="#333" rx="5.849" ry="5.849"/><rect width="107.459" height="107.459" x="456.437" y="20.561" fill="#E0E0E0" rx="22"/><circle cx="478.305" cy="42.849" r="5.849" fill="#333"/><ellipse cx="541.608" cy="42.849" fill="#333" rx="5.849" ry="5.849"/><ellipse cx="478.305" cy="106.151" fill="#333" rx="5.849" ry="5.849"/><circle cx="541.608" cy="106.151" r="5.849" fill="#333"/><text fill="#000" xml:space="preserve" style="white-space:pre" font-family="sans-serif" font-size="12" letter-spacing="0em"><tspan x="49.063" y="151.54">Add index 0</tspan></text><text fill="#EB5757" xml:space="preserve" style="white-space:pre" font-family="sans-serif" font-size="12" letter-spacing="0em"><tspan x="162.487" y="350.039">Face [0, 3, 2]</tspan></text><text fill="#EB5757" xml:space="preserve" style="white-space:pre" font-family="sans-serif" font-size="12" letter-spacing="0em"><tspan x="368.564" y="350.039">Face [0, 1, 3]</tspan></text><text fill="#000" xml:space="preserve" style="white-space:pre" font-family="sans-serif" font-size="12" letter-spacing="0em"><tspan x="189.134" y="151.54">Add index 1</tspan></text><text fill="#000" xml:space="preserve" style="white-space:pre" font-family="sans-serif" font-size="12" letter-spacing="0em"><tspan x="333.527" y="151.54">Add index 2</tspan></text><text fill="#000" xml:space="preserve" style="white-space:pre" font-family="sans-serif" font-size="12" letter-spacing="0em"><tspan x="474.162" y="151.54">Add index 3</tspan></text></svg>