<svg xmlns="http://www.w3.org/2000/svg" width="375" height="75" fill="none" viewBox="0 0 375 75"><rect width="375" height="75" fill="#fff"/><text fill="#FF3232" xml:space="preserve" style="white-space:pre" font-family="sans-serif" font-size="12" letter-spacing="0em"><tspan x="10.783" y="61.864">Bounding Quad</tspan></text><text fill="#32C8FF" xml:space="preserve" style="white-space:pre" font-family="sans-serif" font-size="12" letter-spacing="0em"><tspan x="120.071" y="61.864">EXTEND</tspan></text><text fill="#32C8FF" xml:space="preserve" style="white-space:pre" font-family="sans-serif" font-size="12" letter-spacing="0em"><tspan x="212.498" y="61.864">ROUND</tspan></text><text fill="#32C8FF" xml:space="preserve" style="white-space:pre" font-family="sans-serif" font-size="12" letter-spacing="0em"><tspan x="301.273" y="61.864">SQUARE</tspan></text><rect width="57.045" height="31.339" x="19.519" y="11.674" fill="#D9D9D9" stroke="#000"/><rect width="15.315" height="32.339" x="77.064" y="11.174" fill="#FF3232"/><rect width="57.045" height="31.339" x="109.611" y="11.674" fill="#D9D9D9" stroke="#000"/><rect width="15.315" height="32.339" x="167.156" y="11.174" fill="#32C8FF"/><rect width="57.045" height="31.339" x="290.433" y="11.674" fill="#D9D9D9" stroke="#000"/><rect width="15.315" height="32.339" x="347.977" y="11.174" fill="#32C8FF" fill-opacity=".2"/><rect width="57.045" height="31.339" x="199.703" y="11.674" fill="#D9D9D9" stroke="#000"/><rect width="15.953" height="32.339" x="257.247" y="11.174" fill="#32C8FF" fill-opacity=".2"/><path fill="#32C8FF" d="M257.247 43.2963C261.478 43.2963 265.536 41.6155 268.528 38.6238C271.519 35.6321 273.2 31.5745 273.2 27.3436C273.2 23.1127 271.519 19.0551 268.528 16.0634C265.536 13.0717 261.478 11.391 257.247 11.391L257.247 27.3436L257.247 43.2963Z"/></svg>