<svg xmlns="http://www.w3.org/2000/svg" width="375" height="100" fill="none" viewBox="0 0 375 100"><rect width="375" height="100" fill="#fff"/><rect width="46.406" height="27.029" x="11.706" y="51.893" fill="#000" fill-opacity=".1" stroke="#000" transform="rotate(-45 11.7061 51.8931)"/><rect width="46.406" height="27.029" x="78.041" y="71.005" fill="#000" fill-opacity=".1" stroke="#000" transform="rotate(-135 78.0415 71.0052)"/><rect width="14.014" height="14.014" x="44.52" y="18.372" fill="#FF3232" transform="rotate(-45 44.5202 18.3719)"/><rect width="46.406" height="27.029" x="101.548" y="51.893" fill="#000" fill-opacity=".1" stroke="#000" transform="rotate(-45 101.548 51.8931)"/><rect width="46.406" height="27.029" x="167.884" y="71.005" fill="#000" fill-opacity=".1" stroke="#000" transform="rotate(-135 167.884 71.0052)"/><rect width="14.014" height="14.014" x="134.362" y="18.372" fill="#32C8FF" transform="rotate(-45 134.362 18.3719)"/><rect width="46.406" height="27.029" x="191.96" y="51.893" fill="#000" fill-opacity=".1" stroke="#000" transform="rotate(-45 191.96 51.8931)"/><rect width="46.406" height="27.029" x="258.295" y="71.005" fill="#000" fill-opacity=".1" stroke="#000" transform="rotate(-135 258.295 71.0052)"/><rect width="14.014" height="14.014" x="224.774" y="18.372" fill="#32C8FF" fill-opacity=".2" transform="rotate(-45 224.774 18.3719)"/><rect width="46.406" height="27.029" x="282.371" y="51.893" fill="#000" fill-opacity=".1" stroke="#000" transform="rotate(-45 282.371 51.8931)"/><rect width="46.406" height="27.029" x="348.707" y="71.005" fill="#000" fill-opacity=".1" stroke="#000" transform="rotate(-135 348.707 71.0052)"/><rect width="14.014" height="14.014" x="315.186" y="18.372" fill="#32C8FF" fill-opacity=".2" transform="rotate(-45 315.186 18.3719)"/><path fill="#32C8FF" d="M244.583 18.382C243.283 17.0819 241.74 16.0507 240.041 15.3471C238.343 14.6436 236.522 14.2815 234.683 14.2815C232.845 14.2815 231.024 14.6436 229.326 15.3472C227.627 16.0507 226.084 17.082 224.784 18.382L234.684 28.2815L244.583 18.382Z"/><path fill="#32C8FF" d="M325.012 28.2814L315.008 18.4311H334.862L325.012 28.2814Z"/><text fill="#FF3232" xml:space="preserve" style="white-space:pre" font-family="sans-serif" font-size="12" letter-spacing="0em"><tspan x="10.783" y="90.864">Bounding Quad</tspan></text><text fill="#32C8FF" xml:space="preserve" style="white-space:pre" font-family="sans-serif" font-size="12" letter-spacing="0em"><tspan x="126.073" y="90.864">MITER</tspan></text><text fill="#32C8FF" xml:space="preserve" style="white-space:pre" font-family="sans-serif" font-size="12" letter-spacing="0em"><tspan x="212.498" y="90.864">ROUND</tspan></text><text fill="#32C8FF" xml:space="preserve" style="white-space:pre" font-family="sans-serif" font-size="12" letter-spacing="0em"><tspan x="306.591" y="90.864">BEVEL</tspan></text></svg>